<mxfile host="app.diagrams.net" modified="2024-01-29T17:09:17.587Z" agent="Mozilla/5.0 (Windows NT 10.0; Win64; x64) AppleWebKit/537.36 (KHTML, like Gecko) Chrome/120.0.0.0 Safari/537.36" version="23.0.2" etag="R9Qm8M7Qec8DY7c2n3M0" type="github">
  <diagram name="Page-1" id="gxXwNX61zRqxg7FvleXQ">
    <mxGraphModel>
      <root>
        <mxCell id="0" />
        <mxCell id="1" parent="0" />
      </root>
    </mxGraphModel>
  </diagram>
</mxfile>
